<svg xmlns="http://www.w3.org/2000/svg" width="190" height="100" viewBox="0 0 190 100">
  <g id="cb_logo" data-name="cb logo" transform="translate(-365 -725)">
    <rect id="Rectangle_1604" data-name="Rectangle 1604" width="190" height="100" transform="translate(365 725)" fill="white"/>
    <g id="Victoria_Beckham-0" data-name="Victoria Beckham-0" transform="translate(385.912 746.694)">
      <path id="Path_111" data-name="Path 111" d="M176.545,278.648,169,295.291,161.5,278.648h-3.1l10.038,22.018h1.143l10.038-22.018Z" transform="translate(-158.397 -278.445)"/>
      <rect id="Rectangle_7" data-name="Rectangle 7" width="2.885" height="21.819" transform="translate(24.65 0.201)"/>
      <path id="Path_112" data-name="Path 112" d="M251.817,278.649V281.3h7.49V300.47h2.886V281.3h7.49v-2.655Z" transform="translate(-198.145 -278.446)"/>
      <g id="Group_2" data-name="Group 2" transform="translate(72.126 -0.007)">
        <path id="Path_113" data-name="Path 113" d="M302.594,289.418a8.194,8.194,0,1,1-8.194-8.194,8.193,8.193,0,0,1,8.194,8.194M294.4,278.3a11.109,11.109,0,1,0,11.3,11.109A10.96,10.96,0,0,0,294.4,278.3" transform="translate(-283.489 -278.297)"/>
        <path id="Path_114" data-name="Path 114" d="M340.651,284.845c0,1.844-1.14,3.808-4.338,3.808h-4.3V281.3h4.232c2.8,0,4.4,1.292,4.4,3.545m2.977,0c0-4.284-3.352-6.2-6.661-6.2h-7.831v21.824h2.879v-9.16h3.991l6.444,9.161h3.428l-6.693-9.513a6.322,6.322,0,0,0,4.44-6.111" transform="translate(-303.167 -278.437)"/>
      </g>
      <rect id="Rectangle_8" data-name="Rectangle 8" width="2.886" height="21.819" transform="translate(118.518 0.201)"/>
      <g id="Group_3" data-name="Group 3" transform="translate(2.701 34.069)">
        <path id="Path_115" data-name="Path 115" d="M440.116,294.106a3.909,3.909,0,0,1-4.333,3.707h-4.333v-7.289h4.264c2.8,0,4.4,1.306,4.4,3.582m-4.923-6.237h-3.743V281.3h4.006c1.857,0,3.84.838,3.84,3.185s-2.062,3.381-4.1,3.381m4.567,1.148a5.028,5.028,0,0,0,2.549-4.525c0-2.9-2.3-5.841-6.693-5.841h-7.051v21.821h6.79c1.815,0,7.737-.459,7.737-6.369a5.181,5.181,0,0,0-3.332-5.09" transform="translate(-428.566 -278.651)"/>
      </g>
      <path id="Path_116" data-name="Path 116" d="M460.512,278.649V300.47h12.7v-2.655h-9.815v-7.289h9.1v-2.655h-9.1V281.3h9.815v-2.655Z" transform="translate(-439.458 -244.583)"/>
      <path id="Path_117" data-name="Path 117" d="M542.869,278.649l-9.778,9.681v-9.681H530.21v21.821h2.881v-8.38l1.708-1.706,9.475,10.08h3.741l-11.248-12.017,9.879-9.8Z" transform="translate(-469.109 -244.584)"/>
      <path id="Path_118" data-name="Path 118" d="M582.512,278.649v9.218H570.12v-9.218h-2.88V300.47h2.88v-9.944h12.391v9.944H585.4V278.649Z" transform="translate(-484.864 -244.583)"/>
      <path id="Path_119" data-name="Path 119" d="M385.452,283.713l3.987,8.823h-7.992Zm-.57-5.405-10.072,22.017h3.1l2.375-5.234h10.306l2.291,5.07.075.168h3.1l-10.041-22.02Z" transform="translate(-250.472 -278.301)"/>
      <path id="Path_120" data-name="Path 120" d="M614.881,283.713l3.987,8.823h-7.992Zm-.572-5.405-10.07,22.017h3.1l2.375-5.234h10.306l2.291,5.07.075.168h3.1l-10.038-22.017Z" transform="translate(-500.606 -244.438)"/>
      <path id="Path_121" data-name="Path 121" d="M663.788,278.651,656.8,295.5l-6.989-16.844H646.04V300.47h2.722v-17.4l7.207,17.233.072.168h1.509l7.281-17.4v17.4h2.722V278.651Z" transform="translate(-518.39 -244.583)"/>
      <g id="Group_4" data-name="Group 4" transform="translate(31.288 0.002)">
        <path id="Path_122" data-name="Path 122" d="M223.752,281.089a7.866,7.866,0,0,1,7.014,3.605l2.1-1.852a10.943,10.943,0,0,0-9.116-4.537,11.109,11.109,0,1,0,0,22.219,10.953,10.953,0,0,0,9.051-4.439l-2.057-1.894a7.931,7.931,0,0,1-6.991,3.543,8.323,8.323,0,1,1,0-16.646" transform="translate(-212.641 -278.302)"/>
        <path id="Path_123" data-name="Path 123" d="M499.032,281.089a7.866,7.866,0,0,1,7.014,3.605l2.1-1.852a10.943,10.943,0,0,0-9.118-4.537,11.109,11.109,0,1,0,0,22.219,10.953,10.953,0,0,0,9.051-4.439l-2.057-1.894a7.931,7.931,0,0,1-6.991,3.543,8.323,8.323,0,1,1,0-16.646" transform="translate(-482.282 -244.439)"/>
      </g>
    </g>
  </g>
</svg>
