<svg xmlns="http://www.w3.org/2000/svg" width="190" height="100" viewBox="0 0 190 100">
  <g id="popsockets_logo" data-name="popsockets logo" transform="translate(-365 -725)">
    <rect id="Rectangle_1604" data-name="Rectangle 1604" width="190" height="100" transform="translate(365 725)" fill="white"/>
    <g id="_1C_Primary_Logotype" data-name="1C Primary Logotype" transform="translate(373.724 766.714)">
      <path id="S" d="M390.051,14.637a1.643,1.643,0,0,1-.661-1.327,1.619,1.619,0,0,1,1.643-1.623,1.7,1.7,0,0,1,1.007.32,6.758,6.758,0,0,0,4.108,1.442c1.438,0,2.309-.575,2.309-1.512v-.045c0-.9-.551-1.352-3.225-2.054-3.225-.822-5.308-1.717-5.308-4.9V4.9c0-2.9,2.334-4.827,5.6-4.827a9.306,9.306,0,0,1,5.078,1.417,1.643,1.643,0,0,1-.867,3.024,1.685,1.685,0,0,1-.892-.255,6.668,6.668,0,0,0-3.365-1.072c-1.352,0-2.054.616-2.054,1.393v.045c0,1.056.686,1.4,3.455,2.108,3.254.863,5.082,2.03,5.082,4.815v.045c0,3.184-2.424,4.967-5.879,4.967a10.341,10.341,0,0,1-6.035-1.919" transform="translate(-229.413 -0.044)" fill="#181818"/>
      <path id="T" d="M353.915,3.92h-3.389a1.643,1.643,0,0,1,0-3.25h10.3a1.643,1.643,0,0,1,0,3.25h-3.389V15.062a1.762,1.762,0,1,1-3.521,0Z" transform="translate(-205.693 -0.399)" fill="#181818"/>
      <path id="E" d="M309.45,14.922V2.449A1.746,1.746,0,0,1,311.212.67h8.878a1.582,1.582,0,0,1,1.578,1.578A1.561,1.561,0,0,1,320.09,3.8h-7.128v3.25h6.109a1.578,1.578,0,0,1,1.578,1.578,1.561,1.561,0,0,1-1.578,1.553h-6.109v3.357h7.251a1.582,1.582,0,0,1,1.578,1.582,1.561,1.561,0,0,1-1.578,1.553h-9a1.746,1.746,0,0,1-1.763-1.763" transform="translate(-182.315 -0.399)" fill="#181818"/>
      <path id="K" d="M265.982,2.092a1.763,1.763,0,0,1,3.525,0V7.47l6.487-6.454a1.988,1.988,0,0,1,1.491-.686,1.59,1.59,0,0,1,1.623,1.643,1.763,1.763,0,0,1-.641,1.327l-4.519,4.211,4.93,6.163a1.882,1.882,0,0,1,.481,1.233,1.705,1.705,0,0,1-1.787,1.721,1.779,1.779,0,0,1-1.487-.846l-4.577-6-2.013,1.878v3.2a1.763,1.763,0,0,1-3.525,0Z" transform="translate(-156.699 -0.198)" fill="#181818"/>
      <path id="C" d="M219.271,8.324V8.279A8.143,8.143,0,0,1,227.624,0a8.305,8.305,0,0,1,5.341,1.643,1.783,1.783,0,0,1,.686,1.4,1.721,1.721,0,0,1-1.742,1.717,1.845,1.845,0,0,1-1.052-.345,5.275,5.275,0,0,0-3.287-1.142,4.745,4.745,0,0,0-4.647,4.988V8.3a4.757,4.757,0,0,0,4.647,5.033,5.131,5.131,0,0,0,3.476-1.257,1.63,1.63,0,1,1,2.1,2.49,8.323,8.323,0,0,1-13.911-6.2" transform="translate(-129.166 0)" fill="#181818"/>
      <path id="O" d="M181.98,8.328V8.283a4.866,4.866,0,0,0-4.852-5.033,4.788,4.788,0,0,0-4.8,4.988v.045a4.866,4.866,0,0,0,4.852,5.033,4.776,4.776,0,0,0,4.8-4.988m-13.34,0V8.283a8.517,8.517,0,0,1,17.025-.045v.045a8.517,8.517,0,0,1-17.025.066" transform="translate(-99.356 -0.004)" fill="#181818"/>
      <path id="O-2" data-name="O" d="M52.08,8.328V8.283A4.866,4.866,0,0,0,47.228,3.25a4.791,4.791,0,0,0-4.807,4.988v.045a4.866,4.866,0,0,0,4.852,5.033A4.779,4.779,0,0,0,52.08,8.328m-13.34,0V8.283A8.282,8.282,0,0,1,47.273,0a8.214,8.214,0,0,1,8.488,8.237v.045a8.282,8.282,0,0,1-8.533,8.283A8.209,8.209,0,0,1,38.74,8.348" transform="translate(-22.824 -0.004)" fill="#181818"/>
      <path id="S-2" data-name="S" d="M129.966,14.638a1.634,1.634,0,0,1,.978-2.95,1.676,1.676,0,0,1,1,.32,6.775,6.775,0,0,0,4.108,1.442c1.442,0,2.313-.575,2.313-1.512v-.045c0-.9-.551-1.352-3.225-2.054-3.229-.822-5.312-1.717-5.312-4.9V4.9c0-2.9,2.338-4.827,5.608-4.827A9.338,9.338,0,0,1,140.516,1.5a1.643,1.643,0,0,1-.871,3.024,1.676,1.676,0,0,1-.891-.255A6.668,6.668,0,0,0,135.389,3.2c-1.352,0-2.054.616-2.054,1.393v.045c0,1.056.686,1.4,3.455,2.108,3.246.846,5.078,2.013,5.078,4.8v.045c0,3.184-2.424,4.967-5.879,4.967a10.329,10.329,0,0,1-6.019-1.923" transform="translate(-76.179 -0.044)" fill="#181818"/>
      <path id="P" d="M95.664,8.747a2.484,2.484,0,0,0,2.794-2.428V6.274c0-1.578-1.1-2.424-2.876-2.424H92.875v4.9Zm-6.315-6.3A1.746,1.746,0,0,1,91.112.67h4.782c3.821,0,6.13,2.264,6.13,5.534v.045c0,3.7-2.876,5.633-6.475,5.633H92.875v3.18a1.763,1.763,0,1,1-3.525,0Z" transform="translate(-52.641 -0.399)" fill="#181818"/>
      <path id="P-2" data-name="P" d="M6.314,8.747A2.484,2.484,0,0,0,9.108,6.319V6.274c0-1.578-1.1-2.424-2.876-2.424H3.525v4.9ZM0,2.449A1.746,1.746,0,0,1,1.762.67H6.544c3.821,0,6.13,2.264,6.13,5.534v.045c0,3.7-2.876,5.633-6.475,5.633H3.525v3.18a1.75,1.75,0,0,1-1.763,1.767A1.75,1.75,0,0,1,0,15.062Z" transform="translate(0 -0.399)" fill="#181818"/>
    </g>
  </g>
</svg>
