<svg xmlns="http://www.w3.org/2000/svg" width="190" height="100" viewBox="0 0 190 100">
  <g id="logo_Patagonia" transform="translate(-365 -725)">
    <rect id="Rectangle_1604" data-name="Rectangle 1604" width="190" height="100" transform="translate(365 725)" fill="white"/>
    <g id="Patagonia__Unternehmen__logo" data-name="Patagonia_(Unternehmen)_logo" transform="translate(388.954 761.782)">
      <path id="path7420" d="M119.4,0c-1.388,0-3.477,1.159-3.477,2.694,0,1.284.9,1.942,2.193,1.942,1.615,0,4.166-.689,4.166-2.662C122.283.345,120.791,0,119.4,0ZM39.529,1.143a.15.15,0,0,0-.188.141,8.685,8.685,0,0,1-5.607,4.573.149.149,0,0,0-.11.157V7.455c0,.211.11.157.11.157H35.1c.153,0,.11.125.11.125v9.146c0,2.724,1.133,4.135,4.072,4.135,2.62,0,2.813-.065,4.886-1.55,0,0,.133-.046.063-.2-.056-.127-.6-1.394-.642-1.55-.058-.192-.188-.078-.188-.078a1.537,1.537,0,0,1-.955.188,1.164,1.164,0,0,1-1.316-1.159V7.737s-.032-.125.141-.125H43.35s.133.066.172-.125c.046-.233.439-2.177.439-2.177s.059-.141-.094-.141H41.236s-.11.048-.11-.125V3.915a12.681,12.681,0,0,1,.188-2.3s.082-.118-.11-.157c-.266-.053-1.5-.276-1.676-.313ZM74.861,2.287c-1.744,0-2.322.47-2.709,1.629,0,0-.262.761-.345,1.034-.058.192-.188.141-.188.141A17.519,17.519,0,0,0,68.2,4.7C64.686,4.7,61,6.64,61,11.151c0,3.2,2.629,5.038,5.325,5.513,0,0,.426.064,0,.188a23.722,23.722,0,0,1-4.385,1.535s-.19.021-.094.251c.047.113.576,1.443.658,1.66.058.153.251.125.251.125a20.21,20.21,0,0,1,3.915.11c.4.051,0,.11,0,.11-1.347.229-2.913,1.2-2.913,2.662,0,2.537,2.906,3.132,5.748,3.132,1.938,0,6.609-.814,6.609-4.229s-5.286-4.089-7.878-4.338c-.441-.042,0-.125,0-.125,3.866-.955,8.394-1.978,8.394-6.844,0-3.665-3.038-4.636-3.038-5.262a.643.643,0,0,1,.6-.689,1.241,1.241,0,0,1,1.034.219s.1.167.157-.063c.034-.136.611-2.41.642-2.584.039-.211-.141-.157-.141-.157-.338-.033-.687-.078-1.018-.078ZM21.707,3.978c-.069.021-.078.11-.078.11s-1.865,4.585-1.942,4.777.063.2.063.2,1.55.549,1.723.626.235-.047.235-.047a3.957,3.957,0,0,1,3.508-1.691c1.421,0,2.13.532,2.13,1.817v.486c0,.172-.063.188-.063.188l-4.37.11c-2.874,0-5.2,2.068-5.2,5.7,0,2.914,2.2,4.761,5.137,4.761a6.861,6.861,0,0,0,4.37-1.754s.209-.326.266,0,.18.745.266,1.112c.045.19.172.172.172.172h6.124s.235.078.235-.172V18.841s.046-.172-.2-.172h-.7c-.153,0-.125-.282-.125-.282V9.9c0-3.7-2.382-5.2-6-5.2a10.138,10.138,0,0,0-3.712.642s-.263.161-.11-.2c.073-.174.141-.376.141-.376a.18.18,0,0,0-.11-.251c-.211-.077-1.432-.447-1.66-.532a.14.14,0,0,0-.094,0Zm26.64,0c-.069.021-.078.11-.078.11S46.4,8.673,46.326,8.864s.063.2.063.2,1.55.55,1.723.626.235-.047.235-.047a3.927,3.927,0,0,1,3.492-1.691c1.421,0,2.13.532,2.13,1.817v.486c0,.173-.047.188-.047.188l-4.37.11c-2.874,0-5.2,2.067-5.2,5.7,0,2.912,2.2,4.761,5.137,4.761a6.82,6.82,0,0,0,4.354-1.754s.224-.326.282,0,.179.745.266,1.112c.045.19.172.172.172.172h6.108s.251.077.251-.172V18.841s.046-.172-.2-.172h-.7c-.153,0-.125-.282-.125-.282V9.9c0-3.7-2.4-5.2-6.014-5.2a10.061,10.061,0,0,0-3.7.642s-.263.161-.11-.2a2.979,2.979,0,0,0,.125-.392.165.165,0,0,0-.11-.235c-.211-.076-1.417-.447-1.644-.532a.14.14,0,0,0-.094,0Zm78.761,0c-.069.021-.078.11-.078.11s-1.865,4.585-1.942,4.777.063.2.063.2,1.55.55,1.723.626.235-.047.235-.047A3.927,3.927,0,0,1,130.6,7.956c1.421,0,2.13.532,2.13,1.817v.486c0,.173-.047.188-.047.188l-4.369.11c-2.875,0-5.2,2.067-5.2,5.7,0,2.912,2.2,4.761,5.137,4.761a6.819,6.819,0,0,0,4.354-1.754s.224-.326.282,0,.179.745.266,1.112c.045.19.172.172.172.172h6.108s.251.077.251-.172V18.841s.046-.172-.2-.172h-.7c-.153,0-.125-.282-.125-.282V9.9c0-3.7-2.4-5.2-6.014-5.2a10.061,10.061,0,0,0-3.7.642s-.264.161-.11-.2a3.1,3.1,0,0,0,.125-.392.165.165,0,0,0-.11-.235c-.211-.076-1.417-.447-1.644-.532a.14.14,0,0,0-.094,0ZM86.372,4.7c-5.134,0-9.1,3.1-9.1,8.144,0,5.074,3.965,8.175,9.1,8.175,5.167,0,9.146-3.1,9.146-8.175C95.518,7.8,91.539,4.7,86.372,4.7Zm21.675,0c-2.158,0-3.776,1.2-5.372,2.412,0,0-.157.219-.157-.031V4.824c0-.173-.157-.078-.157-.078l-6.813,1.8s-.141,0-.141.172V8.285c0,.173.157.094.157.094s.6-.142.83-.219.157.11.157.11V18.527a.1.1,0,0,1-.11.141h-.924s-.11-.051-.11.141v1.582c0,.211.11.157.11.157H103.6s.11.025.11-.11V18.809c0-.192-.157-.141-.157-.141h-.971c-.154,0-.125-.11-.125-.11V9.882a.306.306,0,0,1,.11-.235,3.916,3.916,0,0,1,2.537-1.19c.871,0,1.707.47,1.707,1.378v8.723s.044.11-.11.11h-.94s-.172-.013-.172.141v1.629c0,.135.141.11.141.11h7.94s.157.055.157-.157V18.809c0-.172-.141-.141-.141-.141h-.846c-.134,0-.11-.157-.11-.157V9.146c0-1.723-.581-4.448-4.683-4.448ZM11.1,4.714a7.334,7.334,0,0,0-3.9,1.41s-.157.075-.157-.078V4.871a.116.116,0,0,0-.157-.125L.141,6.484S0,6.484,0,6.656V8.222c0,.211.157.141.157.141L.94,8.175s.188-.086.188.125V23.32a.2.2,0,0,1-.2.219H.188S0,23.512,0,23.743v1.472c0,.211.251.2.251.2H8.974s.172-.066.172-.219V23.743a.184.184,0,0,0-.188-.2H7.236c-.192,0-.188-.266-.188-.266V20.563c0-.153.125-.094.125-.094a7.121,7.121,0,0,0,3.007.564c4.779,0,7.549-4.416,7.549-8.833,0-4.479-2.911-7.486-6.625-7.486Zm110.835.016a.17.17,0,0,0-.078.016l-6.781,1.864a.133.133,0,0,0-.125.141V8.269c0,.211.188.125.188.125s.444-.1.83-.157c.194-.032.141.148.141.282v9.992s.051.157-.141.157h-.955s-.125-.055-.125.157v1.6c0,.192.125.125.125.125h7.94c.192,0,.125-.157.125-.157s0-1.317,0-1.566c.005-.212-.141-.157-.141-.157h-.783c-.192,0-.141-.141-.141-.141V4.855c0-.1-.04-.122-.078-.125ZM67.954,6.672c2.423,0,3.414,4.729,3.414,6.421,0,1.5-.481,2.1-1.676,2.1-2.422,0-3.43-4.73-3.43-6.421C66.263,7.266,66.76,6.672,67.954,6.672Zm17.415.407c3.262,0,4.244,5.764,4.244,8.019,0,1.691-.465,3.539-2.208,3.539-3.261,0-4.229-5.764-4.229-8.019C83.177,9.459,83.172,7.079,85.37,7.079Zm-77.4.955c1,0,3.853.283,3.853,5.92,0,3.509-.851,4.7-2.788,4.7-1.55,0-1.989-1.159-1.989-2.537V8.426a.27.27,0,0,1,.172-.266l.752-.125Zm18.433,4.4h.783c.192,0,.157.125.157.125v2.882c0,1.19-.3,2.287-1.785,2.287-1.583,0-1.926-1.378-1.926-2.6A2.619,2.619,0,0,1,26.4,12.435Zm26.64,0h.783c.192,0,.141.125.141.125v2.882c0,1.19-.284,2.287-1.77,2.287-1.582,0-1.942-1.378-1.942-2.6A2.632,2.632,0,0,1,53.044,12.435Zm78.761,0h.783c.192,0,.141.125.141.125v2.882c0,1.19-.284,2.287-1.77,2.287-1.582,0-1.942-1.378-1.942-2.6A2.632,2.632,0,0,1,131.8,12.435Zm-62.848,8.8a.124.124,0,0,1,.063.016c1.064.648,1.832,1.136,1.832,2.521,0,.782-.414,1.159-1.222,1.159A1.458,1.458,0,0,1,68.3,23.3a4.087,4.087,0,0,1,.485-1.973.249.249,0,0,1,.172-.094Z" fill="#231f20"/>
      <path id="path7424" d="M277.769,4.23a1.093,1.093,0,0,0-.495-.083h-.349v.81h.37a1.167,1.167,0,0,0,.389-.049.345.345,0,0,0,.239-.35.338.338,0,0,0-.154-.327m-.433-.365a1.743,1.743,0,0,1,.62.081.562.562,0,0,1,.352.574.5.5,0,0,1-.22.447.846.846,0,0,1-.325.11.536.536,0,0,1,.382.221.623.623,0,0,1,.121.35v.165c0,.052,0,.108.006.168a.327.327,0,0,0,.021.117l.015.028h-.373c0-.008,0-.015-.006-.023s0-.016-.006-.025l-.008-.073V5.827a.547.547,0,0,0-.217-.516,1,1,0,0,0-.452-.072h-.32v.887h-.383V3.865h.794Zm-1.214-.111A1.7,1.7,0,0,0,275.6,5a1.774,1.774,0,1,0,3.548,0,1.775,1.775,0,0,0-3.03-1.25m2.709,2.705A2.052,2.052,0,0,1,275.323,5a2.055,2.055,0,0,1,4.111,0,1.988,1.988,0,0,1-.6,1.458" transform="translate(-137.341 -1.473)" fill="#231f20"/>
    </g>
  </g>
</svg>
