<svg xmlns="http://www.w3.org/2000/svg" width="190" height="100" viewBox="0 0 190 100">
  <g id="logo_kylie" transform="translate(-803 -284)">
    <rect id="Rectangle_1609" data-name="Rectangle 1609" width="190" height="100" transform="translate(803 284)" fill="white"/>
    <path id="Path_4105" data-name="Path 4105" d="M6.146,0H2.053V-19.98H6.146v9.19h.007l4.386-9.19h4.344l-4.347,8.793L14.953,0H10.508L6.14-10.79h.006ZM20.929-7.462,16.256-19.98h4.368l2.355,7.968,0-.005,2.583-7.963h4.1L25.021-7.618V0H20.929ZM32.5,0V-19.98H36.59V-2.974h5.2V0ZM44.534,0V-19.98h4.092V0H44.534Zm7.675,0V-19.98h9.983v2.974H56.3v5.282h5.692v2.974H56.3v5.777h6V0ZM13.82,18.2V18.8q.057,3.512-1.3,5.006T7.916,25.3q-3.441,0-4.85-1.621T1.657,18.1v-6.16q0-3.979,1.409-5.6t4.85-1.621a5.861,5.861,0,0,1,4.432,1.515,5.808,5.808,0,0,1,1.345,4.206v.977H9.629v-.595a4.729,4.729,0,0,0-.4-2.329,1.408,1.408,0,0,0-1.31-.772,1.765,1.765,0,0,0-1.657.885,6.066,6.066,0,0,0-.51,2.882v6.16a9.554,9.554,0,0,0,.474,3.625A1.709,1.709,0,0,0,7.916,22.3a1.5,1.5,0,0,0,1.409-.871A5.619,5.619,0,0,0,9.756,18.8V18.2ZM23.01,25.3q-3.413,0-4.814-1.529t-1.4-5.253V10.288A5.321,5.321,0,0,1,18.344,6.11,6.812,6.812,0,0,1,23.01,4.723,6.84,6.84,0,0,1,27.683,6.11a5.307,5.307,0,0,1,1.558,4.177v8.227q0,3.724-1.4,5.253T23.01,25.3Zm0-3a1.775,1.775,0,0,0,1.671-.793,6,6,0,0,0,.467-2.818V10.458A3.252,3.252,0,0,0,24.6,8.418a1.9,1.9,0,0,0-1.593-.694,1.884,1.884,0,0,0-1.586.694,3.283,3.283,0,0,0-.538,2.039v8.227a6,6,0,0,0,.467,2.818A1.761,1.761,0,0,0,23.01,22.3ZM40.749,11.208v-.595a4.18,4.18,0,0,0-.4-2.237,1.634,1.634,0,0,0-1.483-.651,1.966,1.966,0,0,0-1.568.6,2.689,2.689,0,0,0-.523,1.805,2.258,2.258,0,0,0,.623,1.6,7.018,7.018,0,0,0,2.15,1.388,13.552,13.552,0,0,1,4.257,2.818,4.891,4.891,0,0,1,1.221,3.37,5.942,5.942,0,0,1-1.564,4.5A6.58,6.58,0,0,1,38.76,25.3q-3.425,0-4.847-1.338T32.49,19.591v-.779h4.036v.595a3.4,3.4,0,0,0,.53,2.167,2.016,2.016,0,0,0,1.7.722,2.061,2.061,0,0,0,1.667-.651,2.991,2.991,0,0,0,.551-1.968,2.36,2.36,0,0,0-.674-1.685,8.02,8.02,0,0,0-2.335-1.5,12.623,12.623,0,0,1-4.076-2.7,4.757,4.757,0,0,1-1.165-3.271,5.635,5.635,0,0,1,1.564-4.347,6.727,6.727,0,0,1,4.706-1.444q3.227,0,4.557,1.345a5.674,5.674,0,0,1,1.231,4.106l0,.439v.595ZM51.614,25H48.258V5.02h5.735l3.2,15.293h-.014L60.351,5.02h5.707V25H62.7V8.22h.008L59.2,25H55.125l-3.5-16.851h-.008Zm18.252,0V5.02h9.983V7.994H73.958v5.282h5.692v2.974H73.958v5.777h6V25Zm16.61,0V7.994h-4.3V5.02h12.7V7.994h-4.3V25H86.476Zm11.017,0V5.02h4.092V25H97.493Zm19.541-6.8V18.8q.057,3.512-1.3,5.006t-4.6,1.494q-3.441,0-4.85-1.621T104.87,18.1v-6.16q0-3.979,1.409-5.6t4.85-1.621a5.861,5.861,0,0,1,4.432,1.515,5.808,5.808,0,0,1,1.345,4.206v.977h-4.064v-.595a4.729,4.729,0,0,0-.4-2.329,1.408,1.408,0,0,0-1.31-.772,1.765,1.765,0,0,0-1.657.885,6.066,6.066,0,0,0-.51,2.882v6.16a9.554,9.554,0,0,0,.474,3.625,1.709,1.709,0,0,0,1.692,1.02,1.5,1.5,0,0,0,1.409-.871,5.619,5.619,0,0,0,.432-2.627V18.2Zm10.885-7v-.595a4.18,4.18,0,0,0-.4-2.237,1.634,1.634,0,0,0-1.483-.651,1.966,1.966,0,0,0-1.568.6,2.689,2.689,0,0,0-.523,1.805,2.258,2.258,0,0,0,.623,1.6,7.018,7.018,0,0,0,2.15,1.388,13.552,13.552,0,0,1,4.257,2.818,4.891,4.891,0,0,1,1.221,3.37,5.942,5.942,0,0,1-1.564,4.5A6.58,6.58,0,0,1,125.93,25.3q-3.425,0-4.847-1.338t-1.422-4.368v-.779H123.7v.595a3.4,3.4,0,0,0,.53,2.167,2.016,2.016,0,0,0,1.7.722,2.061,2.061,0,0,0,1.667-.651,2.991,2.991,0,0,0,.551-1.968,2.36,2.36,0,0,0-.674-1.685,8.02,8.02,0,0,0-2.335-1.5,12.623,12.623,0,0,1-4.076-2.7,4.757,4.757,0,0,1-1.165-3.271,5.635,5.635,0,0,1,1.564-4.347,6.727,6.727,0,0,1,4.706-1.444q3.227,0,4.557,1.345a5.674,5.674,0,0,1,1.231,4.106l0,.439v.595Z" transform="translate(831.344 330.98)"/>
  </g>
</svg>
