<svg xmlns="http://www.w3.org/2000/svg" width="190" height="100" viewBox="0 0 190 100">
  <g id="logo_staples" transform="translate(-584 -504)">
    <rect id="Rectangle_1599" data-name="Rectangle 1599" width="190" height="100" transform="translate(584 504)" fill="white"/>
    <g id="Staples_Logo_-_Download_Staples_vector_logo_.SVG_from_logotyp.us-1" data-name="Staples Logo - Download Staples vector logo (.SVG) from logotyp.us-1" transform="translate(562.801 383.999)">
      <path id="Path_4113" data-name="Path 4113" d="M70.247,156.423H38.5A5.334,5.334,0,0,0,33.2,161.88v16.976a.117.117,0,0,0,.116.116h4.1a.117.117,0,0,0,.116-.116V161.627H71.218v17.229a.117.117,0,0,0,.116.116h4.109a.117.117,0,0,0,.116-.116V161.88a5.332,5.332,0,0,0-5.313-5.457Z" transform="translate(0 -0.945)" fill="#c00" fill-rule="evenodd"/>
      <path id="Path_4114" data-name="Path 4114" d="M305.347,186.119h-.652a1.122,1.122,0,0,1-1.235-1.271v-6.716c0-4.163-2.255-6.192-6.918-6.192a17.258,17.258,0,0,0-7.458,1.561.108.108,0,0,0-.059.132l1.029,3.143a.109.109,0,0,0,.1.075l.039-.007a16.976,16.976,0,0,1,5.7-1.388c1.6,0,3.23.3,3.23,2.489v.935s-.255.019-5.4.434-5.9,4.019-5.9,5.479c0,2.9,2.3,4.928,5.6,4.928a9.4,9.4,0,0,0,6.267-2.277c.385.807,1.474,2.16,4.446,2.16h1.216a.108.108,0,0,0,.108-.108v-3.269a.108.108,0,0,0-.108-.108Zm-6.222-1.585c-1.908,1.351-3.264,1.908-4.657,1.908-1.45,0-2.428-.749-2.428-1.865a2.1,2.1,0,0,1,2.115-2.225c2.059-.264,4.968-.631,4.968-.631Z" transform="translate(-169.261 -11.258)" fill="#c00" fill-rule="evenodd"/>
      <path id="Path_4115" data-name="Path 4115" d="M250.059,160.686c4.38,0,7.812,3.908,7.808,8.9,0,5.239-3.208,8.9-7.812,8.9a8.338,8.338,0,0,1-5.208-1.982v8.593a.108.108,0,0,1-.108.108H240.62a.108.108,0,0,1-.108-.108V161.229a.108.108,0,0,1,.108-.108h4.124a.108.108,0,0,1,.108.108v1.495a7.561,7.561,0,0,1,5.208-2.038Zm-52.635,4.026c3.475.736,8.18,1.746,8.183,7.065,0,4.26-3.373,6.7-9.254,6.7a18.536,18.536,0,0,1-9.027-2.406l-.078-.047a.11.11,0,0,1-.038-.146l1.885-3.349a.108.108,0,0,1,.094-.055l.055.015.076.045a14.121,14.121,0,0,0,7.023,2.048c2.167,0,4.708-.488,4.708-2.777,0-2.12-2.562-2.661-5.208-3.208-4.2-.868-8.093-2.314-8.093-6.961,0-4.034,3.472-6.638,8.843-6.638a18.992,18.992,0,0,1,8.086,1.823l.194.1a.108.108,0,0,1,.06.1l-.015.055-1.821,3.222a.108.108,0,0,1-.142.045l-.182-.089a14.412,14.412,0,0,0-6.095-1.389c-2.019,0-4.382.47-4.382,2.715,0,2.036,2.6,2.6,5.126,3.135Zm11.594-3.591v-4.23a.108.108,0,0,1,.108-.108h4.121a.108.108,0,0,1,.108.108v4.232h5.624a.108.108,0,0,1,.108.108v3.248a.108.108,0,0,1-.108.108h-5.631v8.029c0,1.318,1.026,2.17,2.6,2.17a6.971,6.971,0,0,0,2.951-.521l.239-.092.039-.007a.11.11,0,0,1,.1.075l.972,2.982a.11.11,0,0,1-.059.134l-.255.109a11.336,11.336,0,0,1-4.847,1.016c-3.8,0-6.076-2.028-6.076-5.425v-8.461h-3.366a.108.108,0,0,1-.108-.108v-3.258a.108.108,0,0,1,.108-.108h3.364Zm85.322,6.669c3.462.607,6.848,1.536,6.846,5.371,0,3.519-2.559,5.3-7.605,5.3a17.084,17.084,0,0,1-7.793-1.993l-.1-.052a.11.11,0,0,1-.056-.1l.014-.054,1.6-2.826a.11.11,0,0,1,.142-.045l.1.047a13.908,13.908,0,0,0,6.091,1.764c2.451,0,3.6-.578,3.6-1.769,0-1.307-1.191-1.724-4.152-2.215-3.347-.556-6.92-1.472-6.92-5.315,0-3.378,2.656-5.239,7.477-5.239a14.934,14.934,0,0,1,6.961,1.632l.135.066a.107.107,0,0,1,.061.1l-.014.054-1.611,2.8a.11.11,0,0,1-.144.042l-.116-.061a11,11,0,0,0-5.295-1.361c-3,0-3.371,1.026-3.371,1.8,0,1.307,1.372,1.564,4.149,2.052Zm-29.9-12.311a.109.109,0,0,1,.109.11v22.348a.109.109,0,0,1-.109.109h-4.121a.109.109,0,0,1-.109-.109V155.588a.11.11,0,0,1,.109-.11ZM248.974,174.79c2.725,0,4.557-2.094,4.557-5.208,0-3.163-1.788-5.208-4.557-5.208a5.539,5.539,0,0,0-4.128,2.154v5.96c1.35,1.592,2.621,2.3,4.128,2.3Z" transform="translate(-102.368 0)" fill="#c00" fill-rule="evenodd"/>
      <path id="Path_4116" data-name="Path 4116" d="M440,184.714a.109.109,0,0,0-.146-.042l-.14.076a9.762,9.762,0,0,1-5.329,1.481c-2.885,0-4.843-1.6-5.235-4.291h12.218a.108.108,0,0,0,.108-.108v-1.181c0-5.377-3.211-8.705-8.38-8.705-4.952,0-8.412,3.708-8.412,9.019,0,5.24,3.741,8.761,9.309,8.761a14.173,14.173,0,0,0,7.505-2.034l.073-.047a.11.11,0,0,0,.035-.146Zm-6.864-9.257a3.708,3.708,0,0,1,4.014,3.393h-7.979A3.738,3.738,0,0,1,433.137,175.456Z" transform="translate(-260.235 -11.263)" fill="#c00" fill-rule="evenodd"/>
    </g>
  </g>
</svg>
