<svg xmlns="http://www.w3.org/2000/svg" width="190" height="100" viewBox="0 0 190 100">
  <g id="diesel_logo" data-name="diesel logo" transform="translate(-365 -725)">
    <rect id="Rectangle_1604" data-name="Rectangle 1604" width="190" height="100" transform="translate(365 725)" fill="white"/>
    <g id="Diesel-6" transform="translate(397 754)">
      <path id="Path_7277" data-name="Path 7277" d="M0,.346H10.239c5.7,0,11.4,1.747,11.4,10.263V31.352c0,8.516-5.7,10.263-11.4,10.263H0Zm7.214,5.9V35.719H9.89c3.258,0,4.421-1.092,4.421-4.149V10.39c.116-3.057-1.164-4.149-4.421-4.149Z" transform="translate(0 0.2)"/>
      <path id="Path_7278" data-name="Path 7278" d="M17.391.346H24.6V41.615H17.391Z" transform="translate(10.062 0.2)"/>
      <path id="Path_7279" data-name="Path 7279" d="M33.111,35.719H43.118v5.9H25.9V.346H42.885v5.9H33.111V17.159H41.6v5.9H33.111Z" transform="translate(14.983 0.2)"/>
      <path id="Path_7280" data-name="Path 7280" d="M45.909,32.535c0,2.729.931,4.04,3.491,4.04,2.676,0,3.607-1.31,3.607-4.04v-.873c0-9.171-13.846-7.533-13.846-21.4v-.109C39.161,3.385,42.652,0,49.749,0c6.865,0,10.472,3.385,10.472,10.918v3.166H53.472V9.935c0-2.729-.931-4.04-3.491-4.04-2.676,0-3.607,1.31-3.607,4.04v.328c0,9.171,13.846,7.533,13.846,21.4v.655c0,6.769-3.491,10.044-10.588,10.044-6.865,0-10.472-3.385-10.472-10.918V27.294h6.749Z" transform="translate(22.657)"/>
      <path id="Path_7281" data-name="Path 7281" d="M62.836,35.719H72.843v5.9H55.623V.346H72.61v5.9H62.836V17.159H71.33v5.9H62.836Z" transform="translate(32.181 0.2)"/>
      <path id="Path_7282" data-name="Path 7282" d="M69.958.346h7.214V35.719H85.81v5.9H69.958Z" transform="translate(40.475 0.2)"/>
    </g>
  </g>
</svg>
