<svg xmlns="http://www.w3.org/2000/svg" xmlns:xlink="http://www.w3.org/1999/xlink" width="190" height="100" viewBox="0 0 190 100">
  <defs>
    <linearGradient id="linear-gradient" x1="-2.49" y1="3.866" x2="4.886" y2="3.866" gradientUnits="objectBoundingBox">
      <stop offset="0" stop-color="#e31013"/>
      <stop offset="0.24" stop-color="#f1e500"/>
      <stop offset="0.25" stop-color="#d5dd07"/>
      <stop offset="0.3" stop-color="#8cc918"/>
      <stop offset="0.35" stop-color="#52b926"/>
      <stop offset="0.38" stop-color="#28ae30"/>
      <stop offset="0.41" stop-color="#0ea736"/>
      <stop offset="0.43" stop-color="#05a438"/>
      <stop offset="0.47" stop-color="#1b8d61"/>
      <stop offset="0.51" stop-color="#2d7b81"/>
      <stop offset="0.55" stop-color="#3a6e99"/>
      <stop offset="0.59" stop-color="#4166a7"/>
      <stop offset="0.62" stop-color="#4463ac"/>
      <stop offset="0.78" stop-color="#d83a8d"/>
      <stop offset="1" stop-color="#e40c22"/>
    </linearGradient>
    <linearGradient id="linear-gradient-2" x1="-5.949" y1="3.979" x2="2.999" y2="3.979" xlink:href="#linear-gradient"/>
    <linearGradient id="linear-gradient-3" x1="-5.317" y1="3.946" x2="1.379" y2="3.946" xlink:href="#linear-gradient"/>
    <linearGradient id="linear-gradient-4" x1="-9.445" y1="3.957" x2="0.317" y2="3.957" xlink:href="#linear-gradient"/>
    <linearGradient id="linear-gradient-5" x1="-9.82" y1="3.957" x2="-0.829" y2="3.957" xlink:href="#linear-gradient"/>
    <linearGradient id="linear-gradient-6" x1="-8.494" y1="3.898" x2="-1.554" y2="3.898" xlink:href="#linear-gradient"/>
    <linearGradient id="linear-gradient-7" x1="-10.289" y1="3.942" x2="-2.777" y2="3.942" xlink:href="#linear-gradient"/>
    <linearGradient id="linear-gradient-8" x1="-3.265" y1="3.851" x2="3.328" y2="3.851" xlink:href="#linear-gradient"/>
  </defs>
  <g id="logo_coldplay" transform="translate(-365 -725)">
    <rect id="Rectangle_1604" data-name="Rectangle 1604" width="190" height="100" transform="translate(365 725)" fill="white"/>
    <g id="Group_5939" data-name="Group 5939" transform="translate(285.586 750.456)">
      <path id="Path_7330" data-name="Path 7330" d="M92.974,24.507A10.081,10.081,0,0,1,96.8,16.29a12.819,12.819,0,0,1,8.134-2.594,19.917,19.917,0,0,1,5.322.781,2.074,2.074,0,0,0,.833.125c0,.927.177,2.447.406,4.551a.437.437,0,0,1-.365.146.713.713,0,0,1-.448-.094,5.708,5.708,0,0,0-.479-1.614,4.626,4.626,0,0,0-1.094-1.479,4.939,4.939,0,0,0-1.8-1.042,8.449,8.449,0,0,0-2.781-.437,8.249,8.249,0,0,0-5.958,2.281c-1.677,1.531-2.541,3.906-2.593,7.2a9.961,9.961,0,0,0,2.614,7.5,8.331,8.331,0,0,0,6.249,2.677,6.616,6.616,0,0,0,2.552-.448A6.176,6.176,0,0,0,110.44,31.3a8.134,8.134,0,0,0,.7-1.437.521.521,0,0,1,.459-.094.406.406,0,0,1,.323.229,10.672,10.672,0,0,1-.583,2.448,7.443,7.443,0,0,1-.844,1.771,4.737,4.737,0,0,0-1.042.312,14.06,14.06,0,0,1-1.9.4,17.716,17.716,0,0,1-2.844.271,13.538,13.538,0,0,1-7.478-2.083,9.964,9.964,0,0,1-3-3.469A10.121,10.121,0,0,1,92.974,24.507Z" transform="translate(0 0)" fill="url(#linear-gradient)"/>
      <path id="Path_7331" data-name="Path 7331" d="M152.017,19.112a11.871,11.871,0,0,0-.219-3.125q-.343-.76-1.718-.781l-.75-.072a.491.491,0,0,1-.1-.438c0-.177.052-.292.156-.333,1.542.073,2.843.1,3.9.115s2.3,0,3.7-.083c.094,0,.156.156.177.344a.561.561,0,0,1-.125.406l-.719.073c-.843,0-1.364.25-1.573.76a10.272,10.272,0,0,0-.281,3.125V29.933a17.066,17.066,0,0,0,.1,2.188,2.2,2.2,0,0,0,.511,1.166,2.077,2.077,0,0,0,.9.479,6.663,6.663,0,0,0,.937.156,8.176,8.176,0,0,0,1.437.115,18.777,18.777,0,0,0,2.646-.125,2.737,2.737,0,0,0,1.041-.27,6.581,6.581,0,0,0,2-3.073.606.606,0,0,1,.479-.063.262.262,0,0,1,.261.24,3.443,3.443,0,0,1-.115.656c-.1.4-.208.823-.333,1.3a17.016,17.016,0,0,1-.833,2.385c-.771,0-1.823-.072-3.125-.072s-2.739,0-4.312-.052H153.2c-1.041,0-2.374,0-3.905.072a.444.444,0,0,1-.146-.353.507.507,0,0,1,.094-.406l.9-.083a1.529,1.529,0,0,0,1.573-.8,10.893,10.893,0,0,0,.25-3.125Z" transform="translate(-10.424 -0.125)" fill="url(#linear-gradient-2)"/>
      <path id="Path_7332" data-name="Path 7332" d="M173.994,18.6a8.835,8.835,0,0,0-.2-2.281,1.325,1.325,0,0,0-1.209-.75l-.656-.094a.5.5,0,0,1-.187-.406.374.374,0,0,1,.218-.344c2.531-.156,5.041-.229,7.551-.218a20.668,20.668,0,0,1,6.6.937,9.2,9.2,0,0,1,4.593,3.614,10.418,10.418,0,0,1,1.478,5.583,10.155,10.155,0,0,1-5.3,9.239,14.754,14.754,0,0,1-6.749,1.458c-.979,0-1.9-.063-2.76-.125s-1.593-.135-2.145-.135c-1.177,0-2.438,0-3.76.073a.439.439,0,0,1-.146-.354.521.521,0,0,1,.094-.406l.687-.083c.844-.052,1.375-.333,1.583-.823a10.814,10.814,0,0,0,.25-3.062Zm2.4,11.123a6.255,6.255,0,0,0,.594,3.385c.615.9,1.844,1.333,3.7,1.3q4.375,0,6.458-2.688a11.308,11.308,0,0,0,2.083-7.02,13.575,13.575,0,0,0-.344-2.906,9.034,9.034,0,0,0-1.4-3.021,7.884,7.884,0,0,0-2.9-2.385,11.523,11.523,0,0,0-4.843-.948h-1.156a8.453,8.453,0,0,0-.9.094,2.279,2.279,0,0,0-.927.3c-.23.187-.334.979-.323,2.364Z" transform="translate(-14.54 -0.15)" fill="url(#linear-gradient-3)"/>
      <path id="Path_7333" data-name="Path 7333" d="M206.13,30.529a8.416,8.416,0,0,0,.3,3.124c.188.5.75.782,1.667.844l.812.094a.458.458,0,0,1,.135.375.52.52,0,0,1-.2.385c-1.551-.073-2.854-.1-3.905-.115s-2.406,0-3.667.073a.407.407,0,0,1-.146-.354.49.49,0,0,1,.094-.4l.625-.094a1.57,1.57,0,0,0,1.582-.823,10.813,10.813,0,0,0,.219-3.114V19.071a10.218,10.218,0,0,0-.156-2.645c-.166-.437-.583-.666-1.24-.687l-1.042-.125a.744.744,0,0,1-.125-.428.323.323,0,0,1,.187-.323,55.673,55.673,0,0,1,6-.25,10.831,10.831,0,0,1,5.75,1.271A5.206,5.206,0,0,1,215.4,20.55a4.952,4.952,0,0,1-1.041,3.25,5.876,5.876,0,0,1-.959,1.042,7.761,7.761,0,0,1-1.042.678,9.558,9.558,0,0,1-4.166.906.394.394,0,0,1-.146-.323.3.3,0,0,1,.125-.282,5.551,5.551,0,0,0,3.479-1.843,5.59,5.59,0,0,0,.968-3.375c0-3.239-1.614-4.905-4.822-5a3.018,3.018,0,0,0-1.4.177c-.177.136-.261.448-.239.927Z" transform="translate(-20.064 -0.168)" fill="url(#linear-gradient-4)"/>
      <path id="Path_7334" data-name="Path 7334" d="M225.33,19.436a11.183,11.183,0,0,0-.229-3.124q-.334-.782-1.718-.781l-.74-.084a.467.467,0,0,1-.094-.406c0-.187,0-.3.146-.334,1.551.063,2.843.1,3.906.1s2.291,0,3.7-.072c.094,0,.156.146.177.333a.523.523,0,0,1-.125.406l-.719.072c-.844,0-1.364.25-1.573.771a10.163,10.163,0,0,0-.281,3.124V30.268a15.208,15.208,0,0,0,.1,2.187,2.151,2.151,0,0,0,.468,1.218,2.089,2.089,0,0,0,.9.48,6.76,6.76,0,0,0,.937.156,8.166,8.166,0,0,0,1.437.1,15.958,15.958,0,0,0,2.645-.125,2.786,2.786,0,0,0,1.042-.261A6.557,6.557,0,0,0,237.3,30.9a.631.631,0,0,1,.49-.063.312.312,0,0,1,.26.25,4.7,4.7,0,0,1-.114.646c-.1.4-.208.833-.334,1.3a16.386,16.386,0,0,1-.833,2.385c-.77,0-1.823-.063-3.124-.073s-2.74,0-4.312,0h-2.77c-1.042,0-2.385,0-3.906.073a.4.4,0,0,1-.146-.354.528.528,0,0,1,.083-.4l.906-.094a1.539,1.539,0,0,0,1.573-.792,10.976,10.976,0,0,0,.25-3.124Z" transform="translate(-24.037 -0.189)" fill="url(#linear-gradient-5)"/>
      <path id="Path_7335" data-name="Path 7335" d="M258.094,28.146a1.4,1.4,0,0,0-.323-.687,3.132,3.132,0,0,0-.9-.094h-4.551a2.052,2.052,0,0,0-.75.094,1.223,1.223,0,0,0-.4.645l-1.042,3.271a12.877,12.877,0,0,0-.677,2.583.469.469,0,0,0,.177.4,1.046,1.046,0,0,0,.687.229l1.042.094a.427.427,0,0,1,.177.375.488.488,0,0,1-.239.386c-.729,0-1.771-.084-3.124-.1-1.042,0-2.01,0-2.9.072a.49.49,0,0,1-.147-.385.43.43,0,0,1,.011-.354l1.042-.083a1.72,1.72,0,0,0,1.042-.406,2.325,2.325,0,0,0,.781-1.114c.542-1.292,1.427-3.593,2.688-6.916l3.124-8.332a4.867,4.867,0,0,0,.521-2.219,3.129,3.129,0,0,0,.968-.51,8.393,8.393,0,0,0,.6-.646.479.479,0,0,1,.458.27c.188.687.406,1.376.646,2.083s.428,1.437.656,2.083l4.052,12.5a9.279,9.279,0,0,0,1.135,2.593,2.019,2.019,0,0,0,1.406.719l.823.094a.343.343,0,0,1,.146.365.449.449,0,0,1-.156.385c-1.146-.063-2.355-.094-3.636-.1-1.447,0-2.6,0-3.468.072a.426.426,0,0,1-.167-.385.508.508,0,0,1,.115-.364l.885-.094c.666-.051,1.042-.239,1.042-.551a5.966,5.966,0,0,0-.375-1.657Zm-5.936-2.781q-.187.479-.063.625c.063.073.292.115.687.115h3.7c.448,0,.709,0,.792-.177s0-.4-.125-.792l-1.583-5.052q-.167-.594-.344-1.156a7.839,7.839,0,0,0-.333-.823h-.063a5.471,5.471,0,0,1-.239.594c-.125.323-.313.761-.489,1.24Z" transform="translate(-28.232 -0.139)" fill="url(#linear-gradient-6)"/>
      <path id="Path_7336" data-name="Path 7336" d="M280.35,30.786a9.208,9.208,0,0,0,.3,3.176c.208.5.708.761,1.489.781l1.146.094a.639.639,0,0,1,.125.406.492.492,0,0,1-.188.354c-1.676-.063-3.041-.1-4.093-.1s-2.448,0-3.927.073a.431.431,0,0,1-.146-.365.489.489,0,0,1,.094-.4l.928-.083a1.538,1.538,0,0,0,1.573-.8,11.51,11.51,0,0,0,.25-3.125V29.182a13.507,13.507,0,0,0-.115-1.937,9.019,9.019,0,0,0-.833-1.927l-3.521-7.177a6.914,6.914,0,0,0-1.2-1.937,2.087,2.087,0,0,0-1.178-.428l-.833-.177a.546.546,0,0,1-.094-.406.344.344,0,0,1,.156-.333c.917.063,2.083.094,3.489.1s2.458,0,3.219-.073c.135,0,.219.146.239.334a.581.581,0,0,1-.156.406l-.4.073a3.9,3.9,0,0,0-.979.239c-.208.083-.3.177-.281.3a1.245,1.245,0,0,0,.146.437,4.156,4.156,0,0,1,.27.75c.24.594.406,1.042.511,1.218q1.625,3.593,3.364,6.936,1.452-2.531,2.854-5.207c.468-.854.906-1.687,1.333-2.521a6.531,6.531,0,0,0,.646-1.594c0-.1-.115-.2-.344-.3a2.644,2.644,0,0,0-.928-.188l-.542-.083a.738.738,0,0,1-.114-.406.342.342,0,0,1,.187-.333c1.042.063,2,.1,2.885.1s1.823,0,2.8-.083a.635.635,0,0,1,.24.375.457.457,0,0,1-.188.375l-.833.156a3.125,3.125,0,0,0-1.989,1.521,34.623,34.623,0,0,0-2.021,3.375L281.8,24.12a11.294,11.294,0,0,0-1.218,2.458,10.5,10.5,0,0,0-.218,2.583Z" transform="translate(-32.875 -0.217)" fill="url(#linear-gradient-7)"/>
      <path id="Path_7337" data-name="Path 7337" d="M130.687,35.442a10.116,10.116,0,0,1-7.832-3.229,10.414,10.414,0,0,1-2.833-7.291,10.814,10.814,0,0,1,3.125-7.832,10.322,10.322,0,0,1,7.676-3.124q5.208.083,7.843,3.291a11.226,11.226,0,0,1,2.552,7.4,10.739,10.739,0,0,1-3.041,7.748A10.154,10.154,0,0,1,130.687,35.442Zm.4-.937a6.6,6.6,0,0,0,4.926-2.146c1.4-1.447,2.083-3.687,2.166-6.739a14.206,14.206,0,0,0-1.781-7.291,6.665,6.665,0,0,0-6.114-3.437,7.422,7.422,0,0,0-1.156.094,5.557,5.557,0,0,0-1.24.313,6.938,6.938,0,0,0-2.364,1.51,7.293,7.293,0,0,0-1.729,2.76,11.282,11.282,0,0,0-.8,4.322,13.942,13.942,0,0,0,1.8,7.02A6.771,6.771,0,0,0,131.083,34.5Z" transform="translate(-5.02 -0.05)" fill="url(#linear-gradient-8)"/>
    </g>
  </g>
</svg>
